<?xml version="1.0" standalone="no"?>
<!DOCTYPE svg PUBLIC "-//W3C//DTD SVG 20010904//EN"
 "http://www.w3.org/TR/2001/REC-SVG-20010904/DTD/svg10.dtd">
<svg version="1.0" xmlns="http://www.w3.org/2000/svg"
 width="64.000000pt" height="64.000000pt" viewBox="0 0 64.000000 64.000000"
 preserveAspectRatio="xMidYMid meet">

<g transform="translate(0.000000,64.000000) scale(0.100000,-0.100000)"
fill="#000000" stroke="none">
<path fill='white' d="M54 549 c-48 -14 -54 -41 -54 -229 0 -193 6 -215 59 -230 47 -13 475
-13 522 0 53 15 59 37 59 230 0 193 -6 215 -59 230 -44 12 -484 12 -527 -1z
m496 -46 c-1 -12 -215 -168 -230 -168 -15 0 -229 156 -230 168 0 4 104 7 230
7 127 0 230 -3 230 -7z m-358 -145 c64 -48 122 -88 128 -88 6 0 68 43 138 96
l127 95 3 -153 c2 -135 1 -154 -15 -165 -22 -16 -474 -18 -504 -3 -18 10 -19
23 -19 166 0 121 3 154 13 148 6 -4 65 -47 129 -96z"/>
</g>
</svg>
