<?xml version="1.0" standalone="no"?>
<!DOCTYPE svg PUBLIC "-//W3C//DTD SVG 20010904//EN"
 "http://www.w3.org/TR/2001/REC-SVG-20010904/DTD/svg10.dtd">
<svg version="1.0" xmlns="http://www.w3.org/2000/svg"
 width="250.000000pt" height="627.000000pt" viewBox="0 0 250.000000 627.000000"
 preserveAspectRatio="xMidYMid meet">

<g transform="translate(0.000000,627.000000) scale(0.100000,-0.100000)"
fill="#000000" stroke="none">
<path d="M712 6218 c-25 -15 -36 -18 -45 -9 -15 15 -62 14 -76 -3 -6 -7 -14
-44 -18 -80 l-6 -66 45 -43 c45 -43 71 -96 83 -172 4 -22 14 -48 22 -57 13
-15 14 -29 6 -90 -6 -40 -8 -98 -6 -128 6 -77 7 -188 2 -380 -4 -157 -3 -168
20 -225 48 -117 148 -321 204 -414 51 -84 57 -100 57 -150 0 -30 -7 -75 -16
-98 -16 -41 -16 -46 5 -108 11 -36 21 -91 21 -123 0 -92 -34 -272 -63 -328
-14 -28 -31 -78 -38 -111 -12 -58 -10 -71 30 -263 46 -222 61 -332 63 -455 1
-108 -48 -618 -66 -680 -49 -176 -90 -317 -107 -365 l-20 -55 -85 3 -85 4
-110 -108 -109 -108 0 -703 c0 -667 -1 -703 -18 -703 -10 0 -28 -7 -40 -16
-19 -13 -22 -24 -22 -80 l0 -64 910 0 910 0 0 55 c0 46 -4 60 -25 80 -13 14
-33 25 -45 25 -20 0 -20 1 -20 703 l0 702 -103 103 -102 102 -97 0 c-82 0 -97
3 -103 18 -4 9 -33 89 -65 178 -48 131 -61 180 -70 265 -6 57 -15 145 -20 196
-25 232 -6 482 58 763 36 156 41 194 46 355 4 99 14 268 23 375 13 161 14 208
3 270 -15 96 -40 152 -79 181 -31 23 -31 24 -25 84 3 33 24 105 45 161 36 90
39 106 33 157 -8 72 -46 123 -112 154 -61 29 -101 29 -161 -1 -40 -21 -52 -34
-70 -75 -12 -28 -31 -55 -42 -62 -14 -7 -18 -16 -14 -27 10 -24 12 -72 4 -72
-4 0 -10 -7 -13 -17 -4 -10 3 -26 20 -44 44 -46 16 -82 -51 -65 -70 18 -285
424 -285 538 0 24 -5 72 -11 108 -6 36 -14 108 -18 160 -8 85 -7 97 10 119 15
19 19 41 19 102 0 72 -2 79 -20 79 -29 0 -29 73 1 98 31 25 129 159 129 176 0
32 -46 98 -76 111 -24 10 -34 22 -41 51 -10 39 -13 41 -44 29 -9 -3 -29 7 -52
30 -20 19 -37 35 -39 34 -2 0 -18 -10 -36 -21z m778 -2210 c0 -134 -9 -189
-27 -162 -5 6 -26 36 -47 67 l-39 57 16 41 c18 46 78 138 90 139 4 0 7 -64 7
-142z"/>
</g>
</svg>
