<?xml version="1.0" standalone="no"?>
<!DOCTYPE svg PUBLIC "-//W3C//DTD SVG 20010904//EN"
 "http://www.w3.org/TR/2001/REC-SVG-20010904/DTD/svg10.dtd">
<svg version="1.0" xmlns="http://www.w3.org/2000/svg"
 width="32.000000pt" height="32.000000pt" viewBox="0 0 32.000000 32.000000"
 preserveAspectRatio="xMidYMid meet">

<g transform="translate(0.000000,32.000000) scale(0.100000,-0.100000)"
fill="#000000" stroke="none">
<path fill='white' d="M105 295 c-16 -15 -25 -36 -25 -55 0 -70 86 -105 135 -55 50 49 15
135 -55 135 -19 0 -40 -9 -55 -25z m93 -17 c15 -15 15 -61 0 -76 -15 -15 -61
-15 -76 0 -15 15 -15 61 0 76 7 7 24 12 38 12 14 0 31 -5 38 -12z"/>
<path fill='white' d="M56 108 c-21 -30 -22 -108 -1 -108 11 0 15 12 15 45 0 54 16 65 90
65 74 0 90 -11 90 -65 0 -33 4 -45 15 -45 21 0 20 78 -1 108 -14 20 -24 22
-104 22 -80 0 -90 -2 -104 -22z"/>
</g>
</svg>
