<?xml version="1.0" standalone="no"?>
<!DOCTYPE svg PUBLIC "-//W3C//DTD SVG 20010904//EN"
 "http://www.w3.org/TR/2001/REC-SVG-20010904/DTD/svg10.dtd">
<svg version="1.0" xmlns="http://www.w3.org/2000/svg"
 width="64.000000pt" height="64.000000pt" viewBox="0 0 64.000000 64.000000"
 preserveAspectRatio="xMidYMid meet">

<g transform="translate(0.000000,64.000000) scale(0.100000,-0.100000)"
fill="#000000" stroke="none">
<path  fill='white' d="M95 621 c-39 -23 -83 -75 -91 -107 -16 -64 91 -261 191 -353 100 -91
263 -171 320 -157 34 9 100 69 115 106 37 90 -122 184 -203 119 -22 -17 -30
-18 -49 -8 -34 18 -126 108 -149 146 l-21 33 21 26 c40 51 23 136 -39 188 -37
31 -55 32 -95 7z m92 -60 c31 -46 30 -88 -4 -123 l-26 -28 19 -37 c25 -48 149
-172 197 -197 l37 -19 28 26 c18 17 39 27 58 27 32 0 92 -32 100 -54 9 -23
-23 -72 -62 -97 -37 -22 -38 -22 -88 -5 -168 59 -325 212 -387 378 -22 60 -22
61 -3 96 20 37 69 74 94 70 8 -2 25 -18 37 -37z"/>
<path  fill='white' d="M354 629 c-9 -15 2 -22 61 -44 68 -25 146 -104 172 -175 11 -30 26
-56 32 -58 21 -7 22 25 0 82 -28 77 -107 156 -184 185 -64 24 -71 25 -81 10z"/>
<path  fill='white' d="M316 523 c-15 -16 -3 -31 35 -42 52 -16 114 -78 130 -131 9 -28 17
-40 28 -38 34 7 6 92 -50 147 -45 45 -125 81 -143 64z"/>
</g>
</svg>
