<?xml version="1.0" standalone="no"?>
<!DOCTYPE svg PUBLIC "-//W3C//DTD SVG 20010904//EN"
 "http://www.w3.org/TR/2001/REC-SVG-20010904/DTD/svg10.dtd">
<svg version="1.0" xmlns="http://www.w3.org/2000/svg"
 width="64.000000pt" height="64.000000pt" viewBox="0 0 64.000000 64.000000"
 preserveAspectRatio="xMidYMid meet">

<g transform="translate(0.000000,64.000000) scale(0.100000,-0.100000)"
fill="#000000" stroke="none">
<path  fill='white'  d="M249 609 c-93 -14 -177 -78 -221 -168 -32 -65 -32 -177 0 -242 91
-186 325 -229 473 -87 50 48 62 83 33 95 -12 4 -28 -7 -52 -37 -117 -140 -339
-108 -410 60 -18 44 -18 136 0 180 63 151 256 197 378 92 40 -33 60 -64 74
-109 6 -20 4 -23 -18 -23 -35 0 -33 -10 14 -61 l40 -44 40 45 c22 25 40 48 40
53 0 4 -11 7 -25 7 -16 0 -28 7 -31 18 -45 153 -184 245 -335 221z"/>
<path  fill='white' d="M283 543 c-9 -3 -13 -32 -13 -98 0 -52 -4 -97 -10 -100 -18 -11 -10
-44 14 -60 13 -9 28 -14 32 -13 5 2 35 -10 66 -27 44 -23 60 -27 69 -18 19 19
4 39 -50 69 -27 16 -55 39 -60 52 -6 12 -11 60 -11 106 0 84 -7 99 -37 89z
m27 -223 c0 -11 -7 -20 -15 -20 -8 0 -15 9 -15 20 0 11 7 20 15 20 8 0 15 -9
15 -20z"/>
</g>
</svg>
